<?xml version="1.0" standalone="no"?>
<!DOCTYPE svg PUBLIC "-//W3C//DTD SVG 20010904//EN"
 "http://www.w3.org/TR/2001/REC-SVG-20010904/DTD/svg10.dtd">
<svg version="1.0" xmlns="http://www.w3.org/2000/svg"
 width="64.000000pt" height="64.000000pt" viewBox="0 0 64.000000 64.000000"
 preserveAspectRatio="xMidYMid meet">

<g transform="translate(0.000000,64.000000) scale(0.100000,-0.100000)"
fill="#000000" stroke="none">
<path d="M33 622 c-28 -17 -43 -101 -23 -132 14 -22 24 -4 30 53 5 51 6 52 40
55 53 4 80 11 80 22 0 12 -109 13 -127 2z"/>
<path d="M480 620 c0 -11 27 -18 80 -22 34 -3 35 -4 40 -55 6 -57 16 -75 30
-53 20 31 5 115 -23 132 -18 11 -127 10 -127 -2z"/>
<path d="M107 524 c-12 -12 -8 -99 5 -112 17 -17 103 -15 117 2 7 8 11 36 9
63 l-3 48 -60 3 c-34 2 -64 0 -68 -4z m93 -59 c0 -32 -2 -35 -30 -35 -28 0
-30 3 -30 35 0 32 2 35 30 35 28 0 30 -3 30 -35z"/>
<path d="M337 524 c-4 -4 -7 -27 -7 -50 0 -39 -2 -43 -27 -46 -26 -3 -28 -7
-31 -50 -3 -40 -6 -48 -23 -48 -28 0 -24 -18 6 -26 36 -9 55 11 55 57 0 31 4
39 19 39 30 0 42 25 39 76 -3 44 -15 63 -31 48z"/>
<path d="M407 524 c-12 -12 -8 -99 5 -112 17 -17 103 -15 117 2 7 8 11 36 9
63 l-3 48 -60 3 c-34 2 -64 0 -68 -4z m93 -59 c0 -32 -2 -35 -30 -35 -28 0
-30 3 -30 35 0 32 2 35 30 35 28 0 30 -3 30 -35z"/>
<path d="M380 350 c0 -6 14 -13 30 -16 23 -5 30 -12 30 -30 0 -25 30 -39 66
-32 32 6 28 28 -5 28 -28 0 -31 3 -31 30 0 29 -2 30 -45 30 -25 0 -45 -5 -45
-10z"/>
<path d="M110 321 c0 -15 16 -22 34 -15 25 9 19 24 -9 24 -14 0 -25 -4 -25 -9z"/>
<path d="M337 274 c-4 -4 -7 -27 -7 -50 0 -39 -2 -43 -27 -46 -23 -2 -28 -8
-28 -32 0 -35 24 -47 32 -17 3 12 13 21 23 21 29 0 41 25 38 76 -3 44 -15 63
-31 48z"/>
<path d="M107 224 c-12 -12 -8 -99 5 -112 17 -17 103 -15 117 2 7 8 11 36 9
63 l-3 48 -60 3 c-34 2 -64 0 -68 -4z m93 -59 c0 -32 -2 -35 -30 -35 -28 0
-30 3 -30 35 0 32 2 35 30 35 28 0 30 -3 30 -35z"/>
<path d="M407 224 c-12 -12 -8 -99 5 -112 17 -17 103 -15 117 2 7 8 11 36 9
63 l-3 48 -60 3 c-34 2 -64 0 -68 -4z m93 -59 c0 -32 -2 -35 -30 -35 -28 0
-30 3 -30 35 0 32 2 35 30 35 28 0 30 -3 30 -35z"/>
<path d="M4 135 c-8 -33 3 -91 22 -109 18 -19 76 -30 109 -22 39 10 29 26 -16
26 -61 0 -79 14 -79 60 0 67 -23 96 -36 45z"/>
<path d="M606 144 c-3 -9 -6 -33 -6 -54 0 -46 -18 -60 -79 -60 -45 0 -55 -16
-16 -26 33 -8 91 3 109 22 8 8 18 30 22 49 11 58 -13 113 -30 69z"/>
</g>
</svg>
